<?xml version="1.0" encoding="utf-8"?>
<!-- Generator: Adobe Illustrator 23.0.3, SVG Export Plug-In . SVG Version: 6.00 Build 0)  -->
<svg version="1.1" xmlns="http://www.w3.org/2000/svg" xmlns:xlink="http://www.w3.org/1999/xlink" x="0px" y="0px"
	 viewBox="0 0 841.9 595.3" style="enable-background:new 0 0 841.9 595.3;" xml:space="preserve">
<style type="text/css">
	.st0{display:none;}
	.st1{fill:#CCFFFF;}
	.st2{fill:#007678;}
	.st3{fill:#00B9B8;}
	.st4{fill:#008585;}
	.st5{fill:#FF3962;}
	.st6{fill:#BD0735;}
	.st7{fill:#FFDCDC;}
	.st8{fill:#A4F7F3;}
	.st9{fill:#F2E4D6;}
	.st10{fill:#2A3A39;}
	.st11{fill:#122326;}
	.st12{fill:#0D2122;}
	.st13{fill:#E2E2E2;}
	.st14{fill:none;stroke:#000000;stroke-width:8;stroke-linecap:round;stroke-linejoin:round;stroke-miterlimit:10;}
	.st15{fill:none;stroke:#000000;stroke-width:15;stroke-linecap:round;stroke-linejoin:round;stroke-miterlimit:10;}
	.st16{fill:none;stroke:#000000;stroke-width:9;stroke-linecap:round;stroke-linejoin:round;stroke-miterlimit:10;}
	.st17{fill:none;stroke:#000000;stroke-width:17;stroke-linecap:round;stroke-linejoin:round;stroke-miterlimit:10;}
	.st18{fill:none;stroke:#000000;stroke-width:9;stroke-linejoin:round;stroke-miterlimit:10;}
	.st19{fill:none;stroke:#FF3962;stroke-width:10;stroke-linecap:round;stroke-miterlimit:10;}
</style>
<g id="Layer_2" class="st0">
	
		<image style="display:inline;overflow:visible;opacity:0.34;" width="1408" height="768" xlink:href="../../../../Downloads/Gemini_Generated_Image_q2ey1q2ey1q2ey1q.png"  transform="matrix(0.7751 0 0 0.7751 -124.7284 0)">
	</image>
	
		<image style="display:inline;overflow:visible;" width="1408" height="768" xlink:href="../../../../Downloads/Gemini_Generated_Image_q2ey1q2ey1q2ey1q.png"  transform="matrix(0.5696 0 0 0.5696 -713.0289 86.3701)">
	</image>
</g>
<g id="Layer_4">
	<g>
		<path class="st1" d="M422.7,583.3c-76.1,0-147.7-29.6-201.5-83.5s-83.5-125.4-83.5-201.5s29.6-147.7,83.5-201.5
			s125.4-83.5,201.5-83.5S570.4,43,624.2,96.9c53.8,53.8,83.5,125.4,83.5,201.5S678,446,624.2,499.9
			C570.4,553.7,498.8,583.3,422.7,583.3z"/>
		<path class="st2" d="M422.7,21.9c152.7,0,276.5,123.8,276.5,276.5S575.4,574.8,422.7,574.8S146.2,451.1,146.2,298.4
			S270,21.9,422.7,21.9 M422.7,4.9c-39.6,0-78,7.8-114.2,23.1c-34.9,14.8-66.3,35.9-93.3,62.9c-26.9,26.9-48.1,58.3-62.9,93.3
			c-15.3,36.2-23.1,74.6-23.1,114.2s7.8,78,23.1,114.2c14.8,34.9,35.9,66.3,62.9,93.3c26.9,26.9,58.3,48.1,93.3,62.9
			c36.2,15.3,74.6,23.1,114.2,23.1s78-7.8,114.2-23.1c34.9-14.8,66.3-35.9,93.3-62.9c26.9-26.9,48.1-58.3,62.9-93.3
			c15.3-36.2,23.1-74.6,23.1-114.2s-7.8-78-23.1-114.2c-14.8-34.9-35.9-66.3-62.9-93.3c-26.9-26.9-58.3-48.1-93.3-62.9
			C500.7,12.7,462.3,4.9,422.7,4.9L422.7,4.9z"/>
	</g>
</g>
<g id="Layer_3">
	<polygon class="st3" points="320.1,164.3 297.2,151 252.9,162.4 238.8,189 224.1,240 213.5,281.1 205.8,341.2 209.9,390.7 
		222.2,418.6 222.6,435.3 273.6,435.3 272.6,271.7 282.9,239.2 273.7,224.7 	"/>
	<path class="st3" d="M521.8,169.2l16.6-14.1l32.1-4.1c0,0,37.4,17.7,41.2,61.5l24.2,94l2.3,64.6l-16.5,44.7l0.4,19.6h-57.8
		l0.6-155.5l-6.8-37l3.2-18.7L521.8,169.2z"/>
	<path class="st4" d="M272.6,228.6c0,0-39.9,46.1-32.4,206.7h32.4l0.5-143.1l4.3-35.2l7.8-14.8L272.6,228.6z"/>
	<path class="st4" d="M564.9,228.6c0,0,40.4,22.5,36.5,206.7h-32.8l-3.7-146.6l-3.2-31.7l-8.8-14.2L564.9,228.6z"/>
	<polygon class="st5" points="487.5,161.9 503.4,151.6 566,226.3 546.6,233.2 	"/>
	<polygon class="st5" points="331.8,153.5 273.1,227.7 298.3,233.1 352.2,164.6 	"/>
	<polygon class="st6" points="348.1,170.2 294.9,228.6 273.7,224.7 295.7,254.7 305.6,238.3 335.5,198.7 359.4,187.4 	"/>
	<polygon class="st6" points="486.2,189 487.2,167.4 516.5,196.6 547.3,228.6 565.3,222.7 544.8,256.2 533.4,230.4 499.6,192 	"/>
	<polygon class="st7" points="310.1,185.1 333.5,163.8 342.9,169.6 346.2,163.8 333.9,156.4 	"/>
	<polygon class="st7" points="505.1,163.5 533.4,191.4 505.5,152.7 488.8,162.3 494.9,169.2 	"/>
	<path class="st8" d="M521.8,167.4l6.7,7.4c0,0,51.9-34,69.7,39.1s24.1,100.3,28.9,128.1c4.8,27.8,2.3,44.2,2.3,44.2l10.2-26.9
		l-7.7-72.6l-22.4-82.4l-13.2-32.4l-19.1-18.5l-31.6-1.3L521.8,167.4z"/>
	<path class="st8" d="M311.5,175.1c0,0-49.2-31.7-68.8,35.1s-24.9,98.1-24.9,98.1l-7.7,51l-4.4-26.1l9.6-56.4l13.5-56.9l13.9-40
		l19.4-21.3l19.9-7l25.5,4.5l14.6,9.6L311.5,175.1z"/>
	<polygon class="st3" points="323.7,206.9 299.2,248.8 293.1,286.8 296.6,296.5 316.6,266.5 305.6,279.9 300.7,310.3 305.6,351.3 
		325.6,394.9 346.2,417.5 332.3,352.9 334,296.5 342,298.9 368.7,259.6 377.4,248.8 390.6,278.7 406,303 427.6,323.1 441.3,330.1 
		431.4,290.1 431.4,257 432.6,247.5 455.6,276 486.2,304.5 503.1,312.7 508.9,328 499.6,384.5 491.5,417.5 515.7,390.7 530.8,354.9 
		539.8,308.7 535.5,278.9 544.8,294.2 541,255.5 528.5,223.4 499.6,192 460.9,177.6 418.5,167.4 384.6,174.3 	"/>
	<path class="st8" d="M298.6,261.3c0,0,103.8-176.3,243.9,0l-9.1-30.9l-34.7-41.1l-73.6-21.9L359.4,185l-29.1,16.2l-24.8,32
		L298.6,261.3z"/>
	<polygon class="st9" points="377.4,247.5 338,302.1 333.5,359.4 349,392.8 404.3,428.3 426.2,429.7 453.4,416.9 488.8,387.6 
		503.1,363.6 508.4,312.9 488.8,306.4 452.5,274.8 434.7,247.5 429.8,282 438.6,329.6 409.1,308.3 	"/>
	<polygon class="st10" points="538.8,292.5 533.3,349 557.9,357.7 566.2,313.2 562.2,296.5 	"/>
	<polygon class="st10" points="299.6,300.4 287.3,291.3 273.7,303.5 281.7,352.9 307.1,346.3 	"/>
	<polygon class="st11" points="282.7,350.9 302.6,344.1 312.9,374.2 291.7,370.2 	"/>
	<polygon class="st12" points="535.6,346.3 557.9,352 551.4,370.5 530.1,376 524.8,372.8 	"/>
	<path class="st13" d="M298.6,306.6c0,0-20.5-2.6-14,20.6l0.6,25.7l-11.4-35.3l3.9-21.1l16.5-3.4l6.8,9L298.6,306.6z"/>
	<path class="st13" d="M539.8,295.3l1.6,11.9c0,0,17.1-2.3,14.3,16.6l-2.7,28.3l12.4-35.9l-4.7-15.9l-14.6-8L539.8,295.3z"/>
</g>
<g id="контур">
	<path class="st14" d="M400.6,384.5c0,0,7.4,6.2,18.5,6.2s18.1-6.2,18.1-6.2"/>
	<line class="st15" x1="370.6" y1="321.2" x2="370.6" y2="344.1"/>
	<line class="st15" x1="467.9" y1="321.1" x2="467.9" y2="344"/>
	<path class="st16" d="M384.6,298.9c0,0-18.1-10.6-39.7,0"/>
	<path class="st16" d="M473.2,294.2c-5.9,0-12.7,1.2-19.8,4.7"/>
	<path class="st16" d="M334,365c0,0,15,47.2,85,64.6c0,0,55.7-8.3,84.1-64.6"/>
	<path class="st16" d="M377.4,222.7c0,0-1.5,74.1,63.1,108.3c0,0-15.9-42-7.7-83c0,0,51.8,65.4,70.3,64.6c0,0,3.6-38.4-11.1-64.1"/>
	<path class="st16" d="M503.1,284.2c11.9,61.6-12.3,135.7-12.3,135.7s58.4-52.2,45.6-135.7l8.2,8.3c0,0,5.7-80.8-59.8-106.3
		s-91.7-23.5-152.6,14.5c0,0-49.8,49.8-35.7,95.9l12.5-23.1c0,0-33.7,64.3,33.2,144l19,14.2"/>
	<path class="st16" d="M347.1,417.5c-25.6-56.8-11.2-150.5-6.7-153.5c-6.6,16.6-4.5,53.1-4.5,53.1c2.5-24.4,43.1-69.5,43.1-69.5"/>
	<line class="st17" x1="378.9" y1="433.6" x2="362.9" y2="433.6"/>
	<path d="M436.3,333.8c0,0,7.5,4.5,9.5,4.5c1.9,0-1.6-10.2-1.6-10.2L436.3,333.8z"/>
	<path d="M430.1,228.6c0,0-6,30.9-3.1,38.7c2.9,7.8,7.6-14.6,7.6-14.6l21,15.7C455.6,268.4,430.5,238,430.1,228.6z"/>
	<path d="M528.5,262.9c0,0,12.4,17.4,11.2,20.4c-1.2,3-7.5,3.5-7.5,3.5S531.4,267.1,528.5,262.9z"/>
	<path d="M305.6,270.7c0,0,9.4-12.3,14.6-13.7c0,0-5.6,15.7-7.3,18.4C311.2,278.1,305.6,270.7,305.6,270.7z"/>
	<polyline class="st16" points="486.2,184 487.5,161.9 506.5,152.3 565,224.8 544.8,254.9 537.6,236.7 544.8,229.5 489.8,165.5 	"/>
	<line class="st16" x1="532.5" y1="220.9" x2="538.4" y2="231.8"/>
	<polyline class="st16" points="354.2,187.7 350.6,164 332.3,153 273.1,225.6 295,255.8 304,240.9 296.9,228.6 348.9,165.9 	"/>
	<line class="st16" x1="322.2" y1="206.9" x2="300.9" y2="233.1"/>
	<path class="st16" d="M294.1,292.3c0,0-25.3,3.2-21,25.1c4.3,21.9,11.5,45.4,11.5,45.4s8.4,15.7,29,10.4"/>
	<path class="st16" d="M544.8,291.3c0,0,23.8,5.9,19.6,24.2c-4.2,18.3-9.2,45.5-9.2,45.5s-2.9,18.2-31.3,11.5"/>
	<path class="st18" d="M554.6,240.3c0,0,12.5,23.1,10.4,40.1v155"/>
	<path class="st18" d="M521.8,169.2c0,0,14.4-21.1,38.2-17.9c23.8,3.2,44.2,17.8,50.8,59.9c0,0,23.4,66.5,27.4,132.9
		c0,0,1.4,42.5-16.4,71.7v19.6"/>
	<path class="st18" d="M322.2,169.2c0,0-14.4-21.1-38.2-17.9c-23.8,3.2-44.2,17.8-50.8,59.9c0,0-23.4,66.5-27.4,132.9
		c0,0-1.4,42.5,16.4,71.7v19.6"/>
	<path class="st18" d="M284.6,241.4c0,0-10.5,13.9-12,32.6v161.3"/>
	<line class="st19" x1="370.6" y1="366.5" x2="354.7" y2="366.5"/>
	<line class="st19" x1="483.8" y1="366.5" x2="467.9" y2="366.5"/>
</g>
</svg>
